<?xml version="1.0" encoding="UTF-8" standalone="no"?>
<svg
   width="100"
   height="100"
   xml:space="preserve"
   overflow="hidden"
   version="1.1"
   id="svg14"
   sodipodi:docname="OpenCloudMesh.svg"
   inkscape:export-filename="OpenCloudMesh-vertical.svg"
   inkscape:export-xdpi="96"
   inkscape:export-ydpi="96"
   xmlns:inkscape="http://www.inkscape.org/namespaces/inkscape"
   xmlns:sodipodi="http://sodipodi.sourceforge.net/DTD/sodipodi-0.dtd"
   xmlns="http://www.w3.org/2000/svg"
   xmlns:svg="http://www.w3.org/2000/svg"><sodipodi:namedview
     id="namedview14"
     pagecolor="#505050"
     bordercolor="#eeeeee"
     borderopacity="1"
     inkscape:showpageshadow="0"
     inkscape:pageopacity="0"
     inkscape:pagecheckerboard="0"
     inkscape:deskcolor="#505050"
     showgrid="false"><inkscape:page
       x="0"
       y="0"
       width="100"
       height="100"
       id="page2"
       margin="0"
       bleed="0" /></sodipodi:namedview><defs
     id="defs1" /><path
     d="M 49.999584,0 C 22.385542,1.1917999e-4 1.1873862e-4,22.385697 0,50.000417 1.1873862e-4,77.61442 22.385542,99.9988 49.999584,100 77.613389,99.9988 99.998801,77.61442 100,50.000417 99.998813,22.385697 77.613389,1.1917999e-4 49.999584,0 Z m 21.950413,20.992245 c 1.327652,-1.19e-4 2.40384,1.076195 2.40384,2.40386 0,0 0,1.19e-4 0,2.38e-4 -0.0059,0.832354 -0.443347,1.602018 -1.154841,2.034641 l 4.258264,48.739135 c 1.028514,0.293183 1.740019,1.229937 1.745981,2.300174 0,1.327665 -1.076189,2.40386 -2.403852,2.40386 0,0 0,0 0,0 -0.87001,-0.0036 -1.67089,-0.477912 -2.09278,-1.23828 h -6.408263 c -0.414743,0.777054 -1.221584,1.266884 -2.102315,1.274034 -1.327665,0 -2.403852,-1.076195 -2.403852,-2.403861 0,0 0,0 0,0 0.0071,-0.449308 0.140634,-0.88789 0.383764,-1.264499 L 63.118824,49.02314 55.908481,74.441849 c 0.570871,0.457651 0.902188,1.147703 0.902188,1.877085 0,1.327665 -1.076188,2.403861 -2.403839,2.403861 0,0 -0.0012,0 -0.0012,0 -0.588752,-0.02979 -1.147704,-0.275306 -1.568405,-0.691245 -1.790068,0.03218 -4.999323,0.08343 -6.401947,0.04053 -0.394236,0.325362 -0.883951,0.513666 -1.39487,0.535119 -1.296662,0 -2.347712,-1.051168 -2.347712,-2.347846 0,0 0,0 0,0 0.02956,-0.643572 0.322625,-1.245431 0.81007,-1.667329 L 36.249549,49.026716 35.186826,75.360727 c 0.184959,0.338471 0.283405,0.718655 0.286979,1.103607 0,1.296678 -1.051039,2.347846 -2.347712,2.347846 0,0 0,0 0,0 -0.839849,0 -1.615712,-0.448117 -2.034742,-1.176307 h -6.433529 c -0.42011,0.719847 -1.190237,1.163197 -2.023664,1.164388 -1.29666,0 -2.347829,-1.051167 -2.347829,-2.347845 0,0 0,0 0,0 0.0336,-0.985619 0.67909,-1.844907 1.61608,-2.151199 L 26.180452,25.3211 c -0.683611,-0.416296 -1.10789,-1.152113 -1.125878,-1.952287 0,-1.29656 1.051039,-2.347727 2.347712,-2.347727 0,0 0,0 1.19e-4,0 0.801237,0.0012 1.546701,0.411171 1.976939,1.087399 h 10.176231 c 0.424396,-0.52475 1.054257,-0.841292 1.728455,-0.869061 1.296554,-1.19e-4 2.347712,1.051048 2.347712,2.347607 0,1.19e-4 0,1.19e-4 0,1.19e-4 -0.02957,0.606984 -0.293308,1.17881 -0.73593,1.595344 l 0.04809,1.232917 6.741005,25.407267 6.741966,-25.410008 0.04643,-1.173923 c -0.456454,-0.430479 -0.721042,-1.025067 -0.735338,-1.651597 0,-1.296559 1.051159,-2.347726 2.347832,-2.347726 0,0 0,0 0,0 0.70792,0 1.376514,0.319403 1.823434,0.869061 h 10.04562 c 0.433809,-0.68469 1.18463,-1.104442 1.995057,-1.11624 z m -42.33446,4.484147 5.652313,11.527089 c 0.03408,-0.0095 0.0684,-0.01907 0.102946,-0.02729 L 39.884942,25.47639 Z m 29.869506,0 4.49067,11.437942 c 0.05367,0.0048 0.107224,0.01073 0.160891,0.01919 L 69.75471,25.476392 Z M 41.273045,27.068994 36.96484,37.496409 c 0.558711,0.426068 0.897176,1.080009 0.922563,1.782099 -0.0036,0.494716 -0.162922,0.975726 -0.455861,1.374384 l 4.819007,6.429402 z m 16.824762,0 -0.977277,20.0133 4.830333,-6.445969 c -0.276495,-0.387812 -0.430237,-0.848919 -0.445732,-1.324804 0.02861,-0.700303 0.361119,-1.353646 0.909335,-1.788893 z m -28.41231,2.596098 1.467692,20.142253 3.111048,-8.597049 c -0.657029,-0.424995 -1.059018,-1.149372 -1.072377,-1.931788 0.02529,-0.536549 0.233594,-1.048307 0.590416,-1.449825 z m 39.997708,0.0024 -4.022294,8.016641 c 0.413554,0.440967 0.647138,1.02185 0.651911,1.626927 -0.0071,0.833067 -0.444534,1.603566 -1.157227,2.035951 l 3.061711,8.459873 z m -41.610915,3.2181 -3.532592,35.095052 5.328383,-14.95113 z m 43.225796,0.0083 -1.796029,20.135698 5.326116,14.946363 z m -15.241823,3.108334 -4.995987,19.165453 4.485898,-5.985219 z m -12.741675,0.0012 0.509365,13.177733 4.485423,5.985218 z m -6.180986,6.550372 5.99161,22.430627 -0.749645,-15.34204 z m 25.102104,0 -5.241503,7.088587 -0.749633,15.34204 z m -28.126638,3.675391 -2.715611,7.484384 1.56374,11.376923 z m 31.151397,0 1.152466,18.861307 1.563632,-11.376923 z m -21.337591,5.507189 0.632842,16.390823 1.423712,3.017638 2.129494,-11.169549 -0.69613,-3.519385 z m 11.524378,0 -3.489561,4.719527 -0.697198,3.519385 2.129732,11.169549 1.424187,-3.017638 z m -25.470714,5.992369 -5.306453,17.039164 h 6.94444 c 0.148268,-0.147783 0.315951,-0.275307 0.498298,-0.378992 z m 39.417064,0 -2.132118,16.624417 c 0.212138,0.109646 0.406406,0.249087 0.575633,0.414747 h 6.862343 z m -19.708652,2.134527 -2.983296,14.75925 c 0.04809,0.04529 0.09428,0.09058 0.138604,0.137057 l 5.846808,-0.04053 z"
     fill="#61c4d3"
     fill-rule="evenodd"
     id="path1"
     style="stroke-width:1.19179" /></svg>
