<?xml version="1.0" encoding="UTF-8"?><svg id="Logos_Outlines" xmlns="http://www.w3.org/2000/svg" viewBox="0 0 723 230"><defs><style>.cls-1{fill:#171228;}</style></defs><path class="cls-1" d="M13.38,82.8c-3.96-2.08-7.12-5.04-9.48-8.88-2.36-3.84-3.66-8.28-3.9-13.32h10.32c.24,3.36,1.1,6.26,2.58,8.7,1.48,2.44,3.4,4.32,5.76,5.64,2.36,1.32,5.02,1.98,7.98,1.98h6.48c2.24,0,4.5-.54,6.78-1.62,2.28-1.08,4.18-2.7,5.7-4.86,1.52-2.16,2.28-4.84,2.28-8.04s-.9-5.8-2.7-7.8c-1.8-2-4-3.56-6.6-4.68-2.6-1.12-6.26-2.4-10.98-3.84-5.52-1.68-10.02-3.3-13.5-4.86-3.48-1.56-6.44-3.88-8.88-6.96-2.44-3.08-3.66-7.14-3.66-12.18,0-4.4,1.08-8.26,3.24-11.58,2.16-3.32,5.04-5.9,8.64-7.74,3.6-1.84,7.52-2.76,11.76-2.76h6.48c4.4,0,8.4.82,12,2.46,3.6,1.64,6.52,4.14,8.76,7.5,2.24,3.36,3.64,7.52,4.2,12.48h-10.2c-.8-4.48-2.44-7.84-4.92-10.08-2.48-2.24-5.84-3.36-10.08-3.36h-6.24c-2.16,0-4.26.52-6.3,1.56-2.04,1.04-3.68,2.5-4.92,4.38-1.24,1.88-1.86,4.1-1.86,6.66,0,2.96.86,5.38,2.58,7.26,1.72,1.88,3.84,3.36,6.36,4.44,2.52,1.08,6.06,2.3,10.62,3.66,5.76,1.6,10.4,3.2,13.92,4.8,3.52,1.6,6.54,4.02,9.06,7.26,2.52,3.24,3.78,7.58,3.78,13.02,0,4.8-1.22,9.02-3.66,12.66-2.44,3.64-5.6,6.42-9.48,8.34-3.88,1.92-8.02,2.88-12.42,2.88h-6.36c-4.8,0-9.18-1.04-13.14-3.12ZM76.62,81.84c-3.96-2.72-7.06-6.46-9.3-11.22-2.24-4.76-3.36-10.06-3.36-15.9s1.12-11.14,3.36-15.9c2.24-4.76,5.34-8.5,9.3-11.22,3.96-2.72,8.38-4.08,13.26-4.08h4.2c4.96,0,9.4,1.36,13.32,4.08,3.92,2.72,7,6.46,9.24,11.22,2.24,4.76,3.36,10.06,3.36,15.9s-1.12,11.14-3.36,15.9c-2.24,4.76-5.32,8.5-9.24,11.22-3.92,2.72-8.32,4.08-13.2,4.08h-4.32c-4.88,0-9.3-1.36-13.26-4.08ZM102.24,74.52c2.4-1.92,4.32-4.62,5.76-8.1,1.44-3.48,2.16-7.38,2.16-11.7s-.72-8.2-2.16-11.64c-1.44-3.44-3.36-6.14-5.76-8.1-2.4-1.96-5.04-2.94-7.92-2.94h-4.56c-2.96,0-5.64.96-8.04,2.88-2.4,1.92-4.3,4.6-5.7,8.04-1.4,3.44-2.1,7.36-2.1,11.76s.7,8.32,2.1,11.76c1.4,3.44,3.3,6.12,5.7,8.04,2.4,1.92,5.08,2.88,8.04,2.88h4.56c2.88,0,5.52-.96,7.92-2.88ZM121.57,24.48h10.08l15.48,43.8c.4,1.12.98,1.68,1.74,1.68s1.34-.56,1.74-1.68l15.24-43.8h10.08l-21.96,60.48h-10.56l-21.84-60.48ZM188.47,57.42c-.6.68-.82,1.62-.66,2.82.48,2.96,1.38,5.74,2.7,8.34,1.32,2.6,3.04,4.72,5.16,6.36,2.12,1.64,4.58,2.46,7.38,2.46h4.68c3.6,0,6.66-1.14,9.18-3.42,2.52-2.28,4.1-5.1,4.74-8.46h9.24c-.4,3.68-1.64,7.08-3.72,10.2-2.08,3.12-4.8,5.6-8.16,7.44-3.36,1.84-7.08,2.76-11.16,2.76h-4.92c-4.64,0-8.92-1.36-12.84-4.08-3.92-2.72-7-6.48-9.24-11.28-2.24-4.8-3.36-10.2-3.36-16.2s1.22-11.24,3.66-15.96c2.44-4.72,5.62-8.38,9.54-10.98,3.92-2.6,7.96-3.9,12.12-3.9h5.04c4.48,0,8.52,1.3,12.12,3.9,3.6,2.6,6.44,6.06,8.52,10.38,2.08,4.32,3.12,8.96,3.12,13.92,0,1.2-.04,2.44-.12,3.72,0,.24-.02.4-.06.48-.04.08-.06.24-.06.48h-40.32c-1.12,0-1.98.34-2.58,1.02ZM189.43,46.98c.6.76,1.54,1.14,2.82,1.14h25.68c1.2,0,2.14-.34,2.82-1.02s.86-1.62.54-2.82c-.88-3.52-2.54-6.44-4.98-8.76-2.44-2.32-5.26-3.48-8.46-3.48h-4.68c-2.96,0-5.72,1.06-8.28,3.18-2.56,2.12-4.48,5.06-5.76,8.82-.4,1.2-.3,2.18.3,2.94ZM255.73,35.58c-1.84,1.88-3.24,4.18-4.2,6.9-.96,2.72-1.44,5.36-1.44,7.92v34.56h-9.6V24.48h9.6v3.6c0,1.28.34,2,1.02,2.16.68.16,1.46-.24,2.34-1.2,1.2-1.6,2.54-2.76,4.02-3.48,1.48-.72,3.34-1.08,5.58-1.08h7.68v8.28h-8.4c-2.56,0-4.76.94-6.6,2.82ZM283.15,57.42c-.6.68-.82,1.62-.66,2.82.48,2.96,1.38,5.74,2.7,8.34,1.32,2.6,3.04,4.72,5.16,6.36,2.12,1.64,4.58,2.46,7.38,2.46h4.68c3.6,0,6.66-1.14,9.18-3.42,2.52-2.28,4.1-5.1,4.74-8.46h9.24c-.4,3.68-1.64,7.08-3.72,10.2-2.08,3.12-4.8,5.6-8.16,7.44-3.36,1.84-7.08,2.76-11.16,2.76h-4.92c-4.64,0-8.92-1.36-12.84-4.08-3.92-2.72-7-6.48-9.24-11.28-2.24-4.8-3.36-10.2-3.36-16.2s1.22-11.24,3.66-15.96c2.44-4.72,5.62-8.38,9.54-10.98,3.92-2.6,7.96-3.9,12.12-3.9h5.04c4.48,0,8.52,1.3,12.12,3.9,3.6,2.6,6.44,6.06,8.52,10.38,2.08,4.32,3.12,8.96,3.12,13.92,0,1.2-.04,2.44-.12,3.72,0,.24-.02.4-.06.48-.04.08-.06.24-.06.48h-40.32c-1.12,0-1.98.34-2.58,1.02ZM284.11,46.98c.6.76,1.54,1.14,2.82,1.14h25.68c1.2,0,2.14-.34,2.82-1.02s.86-1.62.54-2.82c-.88-3.52-2.54-6.44-4.98-8.76-2.44-2.32-5.26-3.48-8.46-3.48h-4.68c-2.96,0-5.72,1.06-8.28,3.18-2.56,2.12-4.48,5.06-5.76,8.82-.4,1.2-.3,2.18.3,2.94ZM347.64.96v11.4h-10.92V.96h10.92ZM337.44,24.48h9.6v60.48h-9.6V24.48ZM359.76,104.76c-3.84-3.12-5.76-7.24-5.76-12.36,0-2.48.46-4.72,1.38-6.72.92-2,2.18-3.68,3.78-5.04.64-.56.98-1.16,1.02-1.8.04-.64-.26-1.28-.9-1.92-.96-.96-1.7-2.02-2.22-3.18-.52-1.16-.78-2.38-.78-3.66,0-2,.62-3.8,1.86-5.4,1.24-1.6,2.9-2.8,4.98-3.6.88-.4,1.4-.92,1.56-1.56.16-.64-.08-1.32-.72-2.04-1.68-1.76-2.94-3.78-3.78-6.06-.84-2.28-1.26-4.7-1.26-7.26,0-4,.96-7.56,2.88-10.68s4.44-5.56,7.56-7.32c3.12-1.76,6.48-2.64,10.08-2.64h4.08c1.28,0,2.46.04,3.54.12,1.08.08,2.14.2,3.18.36,3.04.32,5.64.48,7.8.48h12.36v7.2h-6.48c-1.28,0-2.08.3-2.4.9-.32.6-.2,1.5.36,2.7.8,1.36,1.4,2.82,1.8,4.38.4,1.56.6,3.18.6,4.86,0,3.6-.9,6.98-2.7,10.14-1.8,3.16-4.28,5.68-7.44,7.56-3.16,1.88-6.66,2.82-10.5,2.82h-12.48c-1.68,0-3.08.42-4.2,1.26-1.12.84-1.68,1.94-1.68,3.3s.58,2.44,1.74,3.24c1.16.8,2.66,1.2,4.5,1.2h19.44c6,0,10.82,1.58,14.46,4.74,3.64,3.16,5.46,7.3,5.46,12.42,0,3.68-.92,6.9-2.76,9.66-1.84,2.76-4.4,4.88-7.68,6.36-3.28,1.48-7.08,2.22-11.4,2.22h-13.08c-6.96,0-12.36-1.56-16.2-4.68ZM398.04,98.82c2.08-1.8,3.12-4.3,3.12-7.5,0-2.88-1-5.16-3-6.84-2-1.68-4.8-2.52-8.4-2.52h-14.64c-4.32,0-7.28.96-8.88,2.88-1.6,1.92-2.4,4.24-2.4,6.96,0,2.96,1.04,5.32,3.12,7.08,2.08,1.76,5.12,2.64,9.12,2.64h13.32c3.68,0,6.56-.9,8.64-2.7ZM389.34,55.38c1.72-1.24,3.04-2.88,3.96-4.92.92-2.04,1.38-4.14,1.38-6.3s-.46-4.1-1.38-6.06c-.92-1.96-2.24-3.56-3.96-4.8-1.72-1.24-3.7-1.86-5.94-1.86h-3.84c-1.68,0-3.38.52-5.1,1.56-1.72,1.04-3.16,2.54-4.32,4.5-1.16,1.96-1.74,4.18-1.74,6.66,0,2.64.58,4.94,1.74,6.9,1.16,1.96,2.58,3.48,4.26,4.56s3.32,1.62,4.92,1.62h4.08c2.24,0,4.22-.62,5.94-1.86ZM418.23,24.48h9.6v4.44c0,1.12.38,1.78,1.14,1.98.76.2,1.7-.26,2.82-1.38,1.6-1.84,3.46-3.3,5.58-4.38,2.12-1.08,4.54-1.62,7.26-1.62h5.64c3.44,0,6.58,1,9.42,3,2.84,2,5.08,4.74,6.72,8.22,1.64,3.48,2.46,7.38,2.46,11.7v38.52h-9.48v-37.56c0-2.88-.48-5.48-1.44-7.8-.96-2.32-2.32-4.14-4.08-5.46-1.76-1.32-3.8-1.98-6.12-1.98h-4.8c-2.96,0-5.58.96-7.86,2.88-2.28,1.92-4.06,4.44-5.34,7.56-1.28,3.12-1.92,6.4-1.92,9.84v32.52h-9.6V24.48ZM516.14,10.92c-.64-.64-1.52-.96-2.64-.96h-21.6V.96h60.48v9h-21.48c-1.12,0-2,.32-2.64.96-.64.64-.96,1.52-.96,2.64v71.4h-10.2V13.56c0-1.12-.32-2-.96-2.64ZM557.7,57.42c-.6.68-.82,1.62-.66,2.82.48,2.96,1.38,5.74,2.7,8.34,1.32,2.6,3.04,4.72,5.16,6.36,2.12,1.64,4.58,2.46,7.38,2.46h4.68c3.6,0,6.66-1.14,9.18-3.42,2.52-2.28,4.1-5.1,4.74-8.46h9.24c-.4,3.68-1.64,7.08-3.72,10.2-2.08,3.12-4.8,5.6-8.16,7.44-3.36,1.84-7.08,2.76-11.16,2.76h-4.92c-4.64,0-8.92-1.36-12.84-4.08-3.92-2.72-7-6.48-9.24-11.28-2.24-4.8-3.36-10.2-3.36-16.2s1.22-11.24,3.66-15.96c2.44-4.72,5.62-8.38,9.54-10.98,3.92-2.6,7.96-3.9,12.12-3.9h5.04c4.48,0,8.52,1.3,12.12,3.9,3.6,2.6,6.44,6.06,8.52,10.38,2.08,4.32,3.12,8.96,3.12,13.92,0,1.2-.04,2.44-.12,3.72,0,.24-.02.4-.06.48-.04.08-.06.24-.06.48h-40.32c-1.12,0-1.98.34-2.58,1.02ZM558.66,46.98c.6.76,1.54,1.14,2.82,1.14h25.68c1.2,0,2.14-.34,2.82-1.02s.86-1.62.54-2.82c-.88-3.52-2.54-6.44-4.98-8.76-2.44-2.32-5.26-3.48-8.46-3.48h-4.68c-2.96,0-5.72,1.06-8.28,3.18-2.56,2.12-4.48,5.06-5.76,8.82-.4,1.2-.3,2.18.3,2.94ZM619.74,81.54c-3.92-2.92-6.9-6.74-8.94-11.46-2.04-4.72-3.06-9.84-3.06-15.36s1.06-10.66,3.18-15.42c2.12-4.76,5.14-8.58,9.06-11.46,3.92-2.88,8.56-4.32,13.92-4.32h4.2c4.16,0,7.94,1.02,11.34,3.06,3.4,2.04,6.14,4.84,8.22,8.4,2.08,3.56,3.24,7.58,3.48,12.06h-9.6c-.4-4.24-1.82-7.8-4.26-10.68-2.44-2.88-5.5-4.32-9.18-4.32h-4.32c-3.44,0-6.38,1.04-8.82,3.12-2.44,2.08-4.26,4.82-5.46,8.22-1.2,3.4-1.8,7.18-1.8,11.34s.6,7.86,1.8,11.34c1.2,3.48,3.02,6.24,5.46,8.28,2.44,2.04,5.34,3.06,8.7,3.06h4.44c3.52,0,6.44-1.32,8.76-3.96,2.32-2.64,3.88-6.04,4.68-10.2h9.6c-.56,4.08-1.84,7.86-3.84,11.34-2,3.48-4.66,6.24-7.98,8.28-3.32,2.04-7.1,3.06-11.34,3.06h-4.2c-5.44,0-10.12-1.46-14.04-4.38ZM671.05.96h9.6v27.96c0,1.12.38,1.78,1.14,1.98.76.2,1.7-.26,2.82-1.38,1.6-1.84,3.46-3.3,5.58-4.38,2.12-1.08,4.54-1.62,7.26-1.62h5.64c3.44,0,6.58,1,9.42,3,2.84,2,5.08,4.74,6.72,8.22,1.64,3.48,2.46,7.38,2.46,11.7v38.52h-9.48v-37.56c0-2.88-.48-5.48-1.44-7.8-.96-2.32-2.32-4.14-4.08-5.46-1.76-1.32-3.8-1.98-6.12-1.98h-4.8c-2.96,0-5.58.96-7.86,2.88-2.28,1.92-4.06,4.44-5.34,7.56-1.28,3.12-1.92,6.4-1.92,9.84v32.52h-9.6V.96ZM3.12,120.96h55.8v14.28H23.52c-1.04,0-1.92.36-2.64,1.08-.72.72-1.08,1.6-1.08,2.64v12.24c0,1.04.36,1.92,1.08,2.64.72.72,1.6,1.08,2.64,1.08h33.48v14.28H23.52c-1.04,0-1.92.36-2.64,1.08-.72.72-1.08,1.6-1.08,2.64v32.04H3.12v-84ZM119.09,204.96h-15.48v-2.52c0-1.28-.42-2.06-1.26-2.34-.84-.28-1.9.1-3.18,1.14-1.6,1.44-3.34,2.58-5.22,3.42-1.88.84-3.9,1.26-6.06,1.26h-4.32c-3.44,0-6.62-1.02-9.54-3.06-2.92-2.04-5.26-4.82-7.02-8.34-1.76-3.52-2.64-7.44-2.64-11.76v-38.28h15.48v35.76c0,2.16.36,4.16,1.08,6,.72,1.84,1.76,3.28,3.12,4.32,1.36,1.04,2.96,1.56,4.8,1.56h3.84c2.08,0,3.94-.68,5.58-2.04,1.64-1.36,2.94-3.2,3.9-5.52.96-2.32,1.44-4.92,1.44-7.8v-32.28h15.48v60.48ZM130.69,144.48h15.48v2.52c0,1.28.42,2.06,1.26,2.34.84.28,1.9-.1,3.18-1.14,1.6-1.44,3.34-2.58,5.22-3.42,1.88-.84,3.9-1.26,6.06-1.26h4.32c3.44,0,6.62,1.02,9.54,3.06,2.92,2.04,5.26,4.82,7.02,8.34,1.76,3.52,2.64,7.44,2.64,11.76v38.28h-15.48v-35.76c0-2.16-.36-4.16-1.08-6-.72-1.84-1.76-3.28-3.12-4.32-1.36-1.04-2.96-1.56-4.8-1.56h-3.84c-2.08,0-3.94.68-5.58,2.04-1.64,1.36-2.94,3.2-3.9,5.52-.96,2.32-1.44,4.92-1.44,7.8v32.28h-15.48v-60.48ZM205.47,201.72c-3.88-2.8-6.86-6.56-8.94-11.28-2.08-4.72-3.12-9.96-3.12-15.72s1.06-11,3.18-15.72c2.12-4.72,5.1-8.48,8.94-11.28,3.84-2.8,8.2-4.2,13.08-4.2h2.88c1.76,0,3.52.34,5.28,1.02,1.76.68,3.4,1.62,4.92,2.82,1.36.96,2.44,1.24,3.24.84.8-.4,1.2-1.24,1.2-2.52v-24.72h15.48v84h-15.48v-1.8c0-1.04-.4-1.72-1.2-2.04-.8-.32-1.72-.12-2.76.6-1.52,1.28-3.22,2.3-5.1,3.06-1.88.76-3.78,1.14-5.7,1.14h-2.64c-4.96,0-9.38-1.4-13.26-4.2ZM231.21,190.32c1.84-1.52,3.3-3.64,4.38-6.36,1.08-2.72,1.62-5.8,1.62-9.24s-.54-6.52-1.62-9.24c-1.08-2.72-2.54-4.84-4.38-6.36-1.84-1.52-3.88-2.28-6.12-2.28h-3.84c-2.24,0-4.28.76-6.12,2.28-1.84,1.52-3.32,3.64-4.44,6.36-1.12,2.72-1.68,5.8-1.68,9.24s.56,6.52,1.68,9.24c1.12,2.72,2.6,4.84,4.44,6.36,1.84,1.52,3.88,2.28,6.12,2.28h3.84c2.24,0,4.28-.76,6.12-2.28Z"/></svg>